<?xml version="1.0" encoding="UTF-8"?>
<svg xmlns="http://www.w3.org/2000/svg" version="1.1" width="300" height="300" viewBox="0 0 300 300"><rect x="0" y="0" width="300" height="300" fill="#ffffff"/><g transform="scale(14.286)"><g transform="translate(0,0)"><path fill-rule="evenodd" d="M8 0L8 1L9 1L9 2L10 2L10 3L8 3L8 4L10 4L10 5L9 5L9 6L8 6L8 7L9 7L9 8L8 8L8 9L7 9L7 8L4 8L4 9L5 9L5 10L6 10L6 11L5 11L5 12L4 12L4 13L5 13L5 12L6 12L6 13L7 13L7 12L6 12L6 11L9 11L9 12L8 12L8 14L10 14L10 12L11 12L11 15L8 15L8 17L9 17L9 16L13 16L13 15L15 15L15 17L13 17L13 18L14 18L14 19L10 19L10 18L12 18L12 17L10 17L10 18L8 18L8 19L9 19L9 21L10 21L10 20L11 20L11 21L12 21L12 20L16 20L16 21L17 21L17 20L18 20L18 21L19 21L19 20L20 20L20 21L21 21L21 18L20 18L20 17L21 17L21 13L20 13L20 12L21 12L21 8L20 8L20 9L18 9L18 8L17 8L17 10L16 10L16 11L17 11L17 12L16 12L16 13L15 13L15 10L14 10L14 8L13 8L13 5L11 5L11 4L13 4L13 2L11 2L11 1L12 1L12 0ZM10 3L10 4L11 4L11 3ZM10 5L10 6L9 6L9 7L10 7L10 6L11 6L11 8L10 8L10 9L11 9L11 10L9 10L9 11L12 11L12 10L13 10L13 8L12 8L12 6L11 6L11 5ZM2 8L2 9L1 9L1 11L2 11L2 9L3 9L3 8ZM11 8L11 9L12 9L12 8ZM6 9L6 10L7 10L7 9ZM3 10L3 11L4 11L4 10ZM17 10L17 11L18 11L18 10ZM19 10L19 11L20 11L20 10ZM13 11L13 12L12 12L12 14L13 14L13 12L14 12L14 11ZM0 12L0 13L1 13L1 12ZM2 12L2 13L3 13L3 12ZM17 12L17 13L16 13L16 15L17 15L17 16L16 16L16 18L15 18L15 19L16 19L16 20L17 20L17 19L18 19L18 18L19 18L19 19L20 19L20 18L19 18L19 17L20 17L20 14L19 14L19 17L18 17L18 18L17 18L17 16L18 16L18 12ZM14 13L14 14L15 14L15 13ZM16 18L16 19L17 19L17 18ZM0 0L0 7L7 7L7 0ZM1 1L1 6L6 6L6 1ZM2 2L2 5L5 5L5 2ZM14 0L14 7L21 7L21 0ZM15 1L15 6L20 6L20 1ZM16 2L16 5L19 5L19 2ZM0 14L0 21L7 21L7 14ZM1 15L1 20L6 20L6 15ZM2 16L2 19L5 19L5 16Z" fill="#000000"/></g></g></svg>
